<svg width="512" height="512" viewBox="0 0 512 512" fill="none" xmlns="http://www.w3.org/2000/svg">
<rect width="512" height="512" fill="#973C00"/>
<path d="M213.67 258.149C213.67 276.819 209.692 292.653 201.735 305.651C193.858 318.649 182.947 328.457 169.004 335.074C155.061 341.691 138.951 345 120.675 345H22.4805V314.75H49.54V197.177H22.4805V166.927H118.548C136.903 166.927 153.17 170.078 167.35 176.38C181.608 182.603 192.873 192.568 201.145 206.275C209.495 219.904 213.67 237.195 213.67 258.149ZM165.223 256.613C165.223 236.998 160.654 222.188 151.516 212.184C142.456 202.179 129.104 197.177 111.458 197.177H95.7422V314.75H106.613C122.605 314.75 134.894 312.072 143.48 306.715C152.146 301.279 157.936 294.426 160.851 286.154C163.765 277.804 165.223 267.957 165.223 256.613ZM393.752 166.927H484.738V197.177H461.696V314.75H484.738V345H394.934V314.75H416.439V197.177H412.304L357.121 345H338.097L282.205 197.177H278.069V314.75H300.993V345H225.723V314.75H249.001V197.177H225.723V166.927H315.291L354.285 271.147L393.752 166.927Z" fill="white"/>
</svg>
